<svg id="Layer_1" data-name="Layer 1" xmlns="http://www.w3.org/2000/svg" viewBox="0 0 690.12 819.38"><defs><style>.cls-1{fill:#030303;}.cls-2{fill:#fff;}.cls-3{fill:#ee262f;}.cls-4{fill:#f3bbd2;}.cls-5{fill:#e7292f;}.cls-6{fill:#e52931;}.cls-7{fill:#ad3039;}.cls-8{fill:#b13034;}.cls-9{fill:#9d303f;}.cls-10{fill:#bc2c39;}.cls-11{fill:#842729;}.cls-12{fill:#060606;}.cls-13{fill:#010101;}.cls-14{fill:#f9bd1d;}</style></defs><title>5</title><path class="cls-1" d="M808.31,741.06c23,7.91,44.15,16.74,62.25,31.09,18.84,14.94,35.87,31.71,45.63,54.39,7.9,18.38,11.23,37.28,4.19,56.62-7.58,20.79-23.24,31.92-44.72,35.58-11,1.87-21.81.54-32.95-1.54.33,5,.72,10,1,14.91,1.34,25.91,2.43,51.86.73,77.75-1.51,23-8,44.4-26.67,60.05-11.17,9.37-24.38,13.93-38.62,15.5a418.15,418.15,0,0,1-63.78,1.89c-24.64-1-48-6.79-67.1-23.77-1.35-1.19-2.23-1.39-3.73,0-15.3,13.86-34.28,18.86-53.94,22-30.9,4.89-61.56,2.7-92-3.81-27.75-5.93-44.09-23.25-50.34-50.64-4.5-19.72-3.24-39.67-2.58-59.59.54-16.4,1.9-32.76,4.1-49.31-24.9,4.73-45.76-2.34-63.11-19.59-22.41-22.28-26.07-54.21-10.45-81.87,10.56-18.7,26.47-32,42.51-45.57,24.12-20.39,52.89-29.18,83.66-36-5.83-2.41-11-4.57-16.26-6.71-24.11-9.9-46.48-22.72-66.23-39.84-2.2-1.9-3.74-1.27-5.74-.24a193.14,193.14,0,0,0-45.66,32.57c-1.77,1.7-3.67,3.28-5.46,4.87l-10.5-10.35a210.63,210.63,0,0,1,49.91-37.86c2.91-1.56,3.56-2.25,1-5a140.25,140.25,0,0,1-24-34.08c-1.5-3-2.94-3.55-6.09-2.53-10,3.23-19.78,6.8-28.39,12.9-2.26,1.61-3.43,1.21-4.8-.74-.56-.82-1.28-1.53-1.91-2.3-5.94-7.27-6-7.31,2.46-12.22A111.3,111.3,0,0,1,368.06,626c2.89-.77,3.06-2,2.22-4.43-4.07-12-7-24.21-7.84-36.87-.16-2.39-1.23-2.55-3.12-2.58a236.11,236.11,0,0,0-52,4.72c-3.85.8-5.22-.22-5.88-4-1.84-10.28-1.93-10.11,8.16-11.81a268.36,268.36,0,0,1,48.1-4c1.94,0,3.72.55,3.84-2.77,1.26-36.1,11.18-70,27.43-102,4-7.8,5.72-14.06,1.29-23-9.33-18.8-9.23-39.44-7.19-60a182.49,182.49,0,0,1,18.08-63.11c7.27-14.79,18.7-21.66,35.1-20.9a91.63,91.63,0,0,1,18.17,2.7A222.53,222.53,0,0,1,514.27,323c11.78,7,22.37,8,35.21,4.5,19.37-5.32,39.46-7,59.54-7.92,7.47-.35,15-.84,22.42-.86,2.91,0,3.57-1.77,4.61-3.62,8-14.26,18.17-26.52,31.9-35.61,25-16.56,52.63-13.75,73.75,7.49a97.55,97.55,0,0,1,18.06,25.49c1.62,3.26,2.87,3.41,5.82,1.51,19.14-12.36,38.91-23.47,61.1-29.54,10.5-2.87,21.09-4.1,31.93-2,17.27,3.29,26.95,14.68,31.79,30.59a203.18,203.18,0,0,1,9.07,58.27c0,1.68.09,3,1.73,4.25,19.64,14.5,22.4,34.44,17.87,56.58A93.59,93.59,0,0,1,908,460.71c-1.65,2.83-1.69,5.34-.65,8.44C915,492.2,920.65,515.71,922.57,540c.31,3.84,1.36,5,5.64,4.88,20.14-.75,40.19,1,60.17,3.45.49.06,1.3,0,1.43.27,2.06,4.34-.45,8.54-.47,12.83,0,2.53-1.8,1.9-3.16,1.78-7.44-.68-14.88-1.34-22.3-2.16-11.76-1.31-23.56-1.25-35.37-1.32-3.37,0-5,.77-4.91,4.7a160.93,160.93,0,0,1-3.17,38.18c-.95,4.59,2.22,4,4.38,4.37,15,2.21,29.52,6,44,10.23,3.57,1,4.27,2.24,3.08,5.79-3.28,9.87-3.12,10-13,7a343.63,343.63,0,0,0-38.29-8.7c-2.36-.41-4.3-.72-5.2,2.66a150.54,150.54,0,0,1-16.17,38.38c-1.62,2.74-1.73,3.84,1.72,5.11a367.11,367.11,0,0,1,49.19,22.57c2.64,1.44,3.32,2.49,1.47,5.11-2.1,3-3.15,8-5.76,8.89-2.37.81-6.26-2.67-9.44-4.33a367.75,367.75,0,0,0-44.51-19.66c-2.14-.78-3.46-.9-5,1.1-20.16,26.51-46.08,45.58-76.41,58.91Z" transform="translate(-300.5 -268.75)"/><path class="cls-2" d="M895.05,479.83A309.17,309.17,0,0,1,908,542.66c.26,2.67-.38,3.43-3,3.64-11.92,1-23.63,3.25-35.31,5.81-2.84.62-3.41,1.52-2.69,4.34,2.77,10.94,2.68,11,13.57,8.71,8.12-1.71,16.31-2.93,24.55-3.94,2.66-.33,3.67.32,3.67,3.33a232.62,232.62,0,0,1-2.91,35.74c-.57,3.66-2.08,4.17-5.21,3.79-5.93-.73-11.91-1.09-17.85-1.8-2.93-.35-4.92-.07-4.39,3.6a7.43,7.43,0,0,1,0,1.49c-.64,10.16-.64,10.22,9.84,10.68a78.08,78.08,0,0,1,12.86,1.3c-1,6.21-3.74,11.83-5.95,17.57-2.86,7.44-6.82,14.37-10.65,21.36-1.29,2.35-2.5,2.64-5,1.86-6.81-2.1-13.78-3.66-20.6-5.7-2.7-.8-3.49.17-4.1,2.53-2.92,11.21-3,11.19,8.43,14.12.79.21,1.56.54,2.35.77,8.47,2.38,8.35,2.28,2.3,9.09-27.83,31.33-63.49,48.87-103.41,58.89-23.28,5.84-47,8.35-70.95,8.9a719.93,719.93,0,0,1-78.28-2c-45-3.86-88.87-12.76-130.4-31.1a219.24,219.24,0,0,1-51.4-31.35c6.11-2.91,12.42-4.37,18.64-6,2.44-.63,3.15-1.07,2.55-3.86-2.51-11.65-2.42-11.83-13.68-8.68-5.89,1.65-11.61,3.9-17.39,5.91-1.52.53-2.8,1.49-4.43-.2-10.27-10.71-19.33-22.27-26.41-35.91a106.38,106.38,0,0,1,28.8-2.39c3.89.22,4.71-1.22,4.86-4.69.46-10.33.59-10.26-9.56-10.41A128.79,128.79,0,0,0,390,620.7c-2.8.54-4.3.22-5.23-2.62a174.12,174.12,0,0,1-7.34-32c-.41-3.2.61-4,3.72-3.69,9.58,1,19.2,1.66,28.77,2.69,3.25.35,4.7-.55,4.39-3.88a11.09,11.09,0,0,1,.08-2c.89-9.17.89-9.2-8.45-10-8.12-.65-16.24-1.55-24.36-1.66-4.57-.07-5.43-1.68-5.14-5.81A235.62,235.62,0,0,1,391,495c9-23.83,20.95-46.13,34.59-67.56,1.61-2.53,1.89-3.75-1.06-5.23-3.23-1.62-6.51-5.65-9.19-5.2-3.18.54-4.26,5.75-6.43,8.82-1.7,2.42-3.18,5-5,7.9a70.84,70.84,0,0,1-6.39-26.18,161.82,161.82,0,0,1,17.95-86.07c5.33-10.33,13.72-13.1,27.62-10.46,23.22,4.41,44.15,14.59,64.91,25.24,6.91,3.55,13.34,9.11,20.62,10.59s14.94-3.14,22.5-4.8c23.44-5.14,47.22-7,71.08-8.43,4.68-.28,5,.89,3.72,5-7.66,24.4-9.68,49.07-2.23,73.94,7.71,25.72,28.32,36,52.85,33.4,14-1.49,27.17-5.95,39.91-11.69,3.3-1.49,4.7-1.33,6.67,2.17C734.47,456.63,752,466.65,775,466.58c3.85,0,5,1.18,6.15,4.38,4.48,12.93,11.43,24.41,22.21,33,17.5,14,36.44,14.49,55.85,4.39C872.74,501.34,884.08,491.35,895.05,479.83Z" transform="translate(-300.5 -268.75)"/><path class="cls-3" d="M825.35,902.89c2.74,20.09,4.86,40.21,4.36,60.55-.09,4-1.12,5.32-5.25,5.6-23.07,1.58-46.18,1.64-69.26,2.66-31.89,1.42-63.81,1.48-95.72,1.91-6.58.09-6.58,0-6.53-6.64.07-8.33.06-8.39-8.5-8.33-6.89.05-6.55-1.32-6.57,6.72,0,10.12.62,8.41-7.63,8.34-34.76-.26-69.52-.68-104.27-1.46-20.26-.46-40.5-1.81-60.76-2.56-3.45-.12-4.13-1.5-4-4.57a400.19,400.19,0,0,1,4.33-45.59,427.38,427.38,0,0,1,9-45.74,387.74,387.74,0,0,1,12.77-40.07,366.33,366.33,0,0,1,40.75-78.4c5.24-7.58,3.9-7.45,12.57-4.91,5.71,1.67,11.66,2.54,17.52,3.68a4.61,4.61,0,0,1,4.14,4.13A74.89,74.89,0,0,0,589.08,802c21.35,17.37,46,23.29,72.66,18.56,28.92-5.13,51.53-20.43,63.12-48.13C728.38,764,732,760,740.79,759.68c5.73-.22,11.42-1.76,17.09-2.88,3.25-.65,5.49.53,7.15,3.16,14.59,23.11,28.46,46.54,39.17,71.85a347.74,347.74,0,0,1,19.46,62.87C824.58,897.35,824,900.33,825.35,902.89Z" transform="translate(-300.5 -268.75)"/><path class="cls-2" d="M637.88,1019.52c0,7.65-.41,15.32.14,22.93.41,5.58-1.94,9-6,12.17-9.38,7.25-20.25,11.12-31.57,13.74-25.37,5.86-51,5.84-76.67,2.39-7.72-1-15.37-2.26-23-3.94-22.79-5-34.41-20-38.59-42.07C460,1012.9,460.07,1001,460.06,989c0-4,1.36-4.5,4.87-4.26,21.88,1.53,43.79,2.32,65.71,3.08,34.06,1.19,68.13,2,102.21,1.67,4.08,0,5.34.84,5.15,5.09C637.61,1002.87,637.88,1011.2,637.88,1019.52Z" transform="translate(-300.5 -268.75)"/><path class="cls-2" d="M726.23,988.89q48.33-2,96.66-4c8.11-.33,7.45-1.79,7.4,7.07-.08,13-1.06,25.81-4.65,38.38-6.69,23.43-23.74,37.9-48.15,40.13-24.19,2.21-48.46,3.38-72.67.86-17.94-1.86-34.48-7.71-48.11-20.24a10.48,10.48,0,0,1-3.75-8.6c.17-16.3.09-32.6-.13-48.9,0-3.24.8-4.11,4.07-4.08,23.11.14,46.21.07,69.32.07Z" transform="translate(-300.5 -268.75)"/><path class="cls-3" d="M757.72,347.59c.16,2.84,5.34,6.84-1.84,8-1.86,1.1-4.42.19-6,2.08h0c-2.87,1.7-4.54-.14-6.17-2.09-5.85-6.24-12.5-10.07-21.58-10.32-12.21-.34-21.81,8.4-25.92,17.6-7.32,16.34-3.56,31.85,9.53,43.54,2.31,2.06,5.06,3.06,7.66,4.45,3.66,2,4.06,6.37.48,8.09-13.19,6.32-26.92,11.45-41.6,12.31-21.45,1.27-31.84-9.86-36-29.28-4.95-23.42-1.47-46.25,7.51-68.23,6.79-16.61,16.74-31,31.86-41.21,19.41-13.09,39.45-11.64,56.09,6.13,10.44,11.14,17.5,24.2,22.18,38.63A46.17,46.17,0,0,0,757.72,347.59Z" transform="translate(-300.5 -268.75)"/><path class="cls-3" d="M799.59,461.3c2.95-2.39,5.47-2.09,8.93-.13,10.7,6.05,22,5.52,32.18-.74,9.9-6.07,15.44-15.75,14.56-27.54-1-13.16-8.64-22.15-20.79-27.07-2-.82-2.58-1.65-3-3.69-.88-4.31-1.38-8.72-3.34-12.81-1.5-3.14-1.21-5.54,3.42-6,7.9-.75,15.71-2.42,23.61-3.19,10.86-1.06,21.58.14,31.61,4.65,11.87,5.35,18.29,14.64,18.78,27.83.66,17.72-5.64,33.06-15.26,47.6a104,104,0,0,1-39.63,35.4c-16.48,8.54-33.63,4.06-45-10.77a66.84,66.84,0,0,1-8.07-13.49C796.29,467.62,795.65,464,799.59,461.3Z" transform="translate(-300.5 -268.75)"/><path class="cls-2" d="M435.49,908.66c-32.21-.21-66.1-33.83-49.4-73.67,6.52-15.56,17.49-27.61,30.06-38.45,1.75-1.51,2.81-1.38,4.49.16,14.44,13.22,29.75,25.42,45,37.72,2.5,2,2.89,3.8,2.08,6.8-5.52,20.39-12.32,40.45-15.9,61.33a4.52,4.52,0,0,1-3.59,4C443.89,907.77,439.58,909,435.49,908.66Z" transform="translate(-300.5 -268.75)"/><path class="cls-2" d="M864.05,904.72a101.3,101.3,0,0,1-19.32-2.57c-2-.43-3-1-3.41-3.3-3.71-19.67-10.12-38.58-16.72-57.4-1.35-3.83-.54-5.79,2.68-8.11,15.45-11.21,30.41-23.05,43.83-36.69,1.42-1.44,2.31-2.4,4.34-.49,15.9,15,28,32.12,32.58,54,4.13,19.64-2.53,38.2-17.58,47.72C882.35,903,873.26,904.44,864.05,904.72Z" transform="translate(-300.5 -268.75)"/><path class="cls-2" d="M847,296.39c16.09-.06,24.59,6,29.09,20.95a205.48,205.48,0,0,1,8.29,46.83c.1,1.74.74,3.89-2.55,3-16.33-4.21-32.61-2.21-48.87.58-4.55.78-9.07,1.74-13.61,2.61a5.26,5.26,0,0,1-5-1.3c-10.23-9.37-22.16-14.94-36.15-15.68-2.12-.11-3.06-1-3.68-3.17-1.67-5.87-3.73-11.63-5.71-17.41-.61-1.79-.46-3,1.3-4.14,21.17-13.37,42.52-26.29,67.54-31.42C840.92,296.61,844.22,296.72,847,296.39Z" transform="translate(-300.5 -268.75)"/><path class="cls-3" d="M774.24,451.44c-24.6,1-43-21-42.87-41.53.19-23.23,20.34-41.91,43.37-41.65,22.81.26,42,19,42.08,41.41C817,432.84,797.09,452,774.24,451.44Z" transform="translate(-300.5 -268.75)"/><path class="cls-4" d="M579,757.73c44,6.3,87.77,7.16,131.66,5.34-4.85,20.11-29.06,41.72-59.69,43.63C617.17,808.82,587.56,788.84,579,757.73Z" transform="translate(-300.5 -268.75)"/><path class="cls-4" d="M817.32,822c-9.9-24.86-24.86-46.46-36.91-70.92,30.8,3.51,56.72,16.47,82,33.13C847.44,797.55,832.9,810.05,817.32,822Z" transform="translate(-300.5 -268.75)"/><path class="cls-4" d="M510,752.89c-8.47,13.64-15.63,27.37-22.5,41.25-4,8-7.89,16.05-11.67,24.16-1.23,2.62-2.09,3.05-4.55,1.05-13-10.56-26-21.11-38.57-32.23-2.22-2-2.23-2.8.15-4.7,12.78-10.2,27.57-16.28,42.86-21.37A211,211,0,0,1,510,752.89Z" transform="translate(-300.5 -268.75)"/><path class="cls-5" d="M722.58,361.73a51,51,0,0,1,5.4,1.6c6.07,2.42,6.55,4.69,2.25,9.38a48,48,0,0,0-10.54,18.16c-.74,2.37-1.79,3.93-4.62,2.69-5.57-2.46-9.71-11.5-8.27-18.16C708.4,368,715.26,361.73,722.58,361.73Z" transform="translate(-300.5 -268.75)"/><path class="cls-6" d="M819.6,445.43c5.07-6.06,8.17-13.1,10.42-20.6.35-1.16.46-3,2.05-3.06s1.93,1.64,2.64,2.69c4.73,7,3.86,14.13-.38,20.91-3.11,4.95-7.87,6.84-13.69,5.86C817.92,449.72,818.33,447.65,819.6,445.43Z" transform="translate(-300.5 -268.75)"/><path class="cls-7" d="M799.59,461.3c-2.69,3-1.78,6.62-2,10.07C793.5,465.06,793.86,463.2,799.59,461.3Z" transform="translate(-300.5 -268.75)"/><path class="cls-8" d="M757.72,347.59A10.25,10.25,0,0,1,754,337.28,17.73,17.73,0,0,1,757.72,347.59Z" transform="translate(-300.5 -268.75)"/><path class="cls-9" d="M819.6,445.43c0,2-.32,4.05,1,5.8C815.83,449.43,815.75,449,819.6,445.43Z" transform="translate(-300.5 -268.75)"/><path class="cls-10" d="M743.69,355.57c2.11.52,3.73,2.52,6.17,2.09C746.15,361.84,745.08,358.22,743.69,355.57Z" transform="translate(-300.5 -268.75)"/><path class="cls-11" d="M825.35,902.89c-3-2.23-1.29-5.44-1.69-8.21A12.32,12.32,0,0,1,825.35,902.89Z" transform="translate(-300.5 -268.75)"/><path class="cls-10" d="M749.87,357.67c.89-3.92,3.94-1.57,6-2.08C754.24,357.32,752.1,357.63,749.87,357.67Z" transform="translate(-300.5 -268.75)"/><path class="cls-12" d="M616,646.56c0-15.27,7.65-24.58,22.89-28.52,12.89-3.33,25.11-1.13,34.78,8.78,10.39,10.65,9.23,27.4-2.13,37.13-12.19,10.43-34.49,10.39-46.58-.08C618.94,658.67,616.07,652.05,616,646.56Z" transform="translate(-300.5 -268.75)"/><path class="cls-13" d="M526.84,597.53c-.7,8.4-2.53,16.32-8.67,22.7-7.29,7.55-18.18,7.8-25.6.39-10.9-10.88-12.1-32.49-2.47-44.49,9.1-11.34,23.31-10.64,31.19,1.53A38.26,38.26,0,0,1,526.84,597.53Z" transform="translate(-300.5 -268.75)"/><path class="cls-13" d="M805.49,598.69c-.64,8-2.51,15.54-8.62,21.51a17.72,17.72,0,0,1-25.66-.39c-10.28-10.92-10.75-30.72-1-41.5,9.17-10.11,23.48-8.59,30.47,3.18C803.83,586.77,805,592.57,805.49,598.69Z" transform="translate(-300.5 -268.75)"/><path class="cls-14" d="M648.62,632a21.75,21.75,0,0,1,13.59,3.87c6.41,4.64,6.33,12.5-.13,17-7.27,5.08-20.63,5-27.75-.16-6.35-4.6-6.29-12.56.15-17C638.73,632.78,643.55,631.88,648.62,632Z" transform="translate(-300.5 -268.75)"/></svg>